ffmpeg version git-2013-08-16-ec0e0eb Copyright (c) 2000-2013 the FFmpeg developers
  built on Aug 16 2013 10:11:34 with gcc 4.4.7 (GCC) 20120313 (Red Hat 4.4.7-3)
  configuration: --prefix=/root/ffmpeg_build --extra-cflags=-I/root/ffmpeg_build/include --extra-ldflags=-L/root/ffmpeg_build/lib --bindir=/root/bin --extra-libs=-ldl --enable-gpl --enable-nonfree --enable-libfdk_aac --enable-libmp3lame --enable-libopus --enable-libvorbis --enable-libvpx --enable-libx264 --enable-libfreetype --enable-libspeex --enable-libtheora
  libavutil      52. 42.100 / 52. 42.100
  libavcodec     55. 28.100 / 55. 28.100
  libavformat    55. 13.102 / 55. 13.102
  libavdevice    55.  3.100 / 55.  3.100
  libavfilter     3. 82.100 /  3. 82.100
  libswscale      2.  5.100 /  2.  5.100
  libswresample   0. 17.103 /  0. 17.103
  libpostproc    52.  3.100 / 52.  3.100
[mp3 @ 0x37a8260] Header missing
[mp3 @ 0x37a8c60] Header missing
[h264 @ 0x37a9660] non-existing PPS referenced
[h264 @ 0x37a9660] non-existing PPS 0 referenced
[h264 @ 0x37a9660] decode_slice_header error
[h264 @ 0x37a9660] no frame!
[h264 @ 0x37a9660] non-existing PPS referenced
[h264 @ 0x37a9660] non-existing PPS 0 referenced
[h264 @ 0x37a9660] decode_slice_header error
[h264 @ 0x37a9660] no frame!
[h264 @ 0x37a9660] non-existing PPS referenced
[h264 @ 0x37a9660] non-existing PPS 0 referenced
[h264 @ 0x37a9660] decode_slice_header error
[h264 @ 0x37a9660] no frame!
[h264 @ 0x37a9660] non-existing PPS referenced
[h264 @ 0x37a9660] non-existing PPS 0 referenced
[h264 @ 0x37a9660] decode_slice_header error
[h264 @ 0x37a9660] no frame!
[h264 @ 0x37a9660] mmco: unref short failure
    Last message repeated 1 times
[mpegts @ 0x37a4240] PES packet size mismatch
    Last message repeated 2 times
Input #0, mpegts, from '/mnt/media/BISS.ts':
  Duration: 03:46:20.77, start: 27901.627256, bitrate: 20992 kb/s
  Program 1 
    Metadata:
      service_name    : DKDR4
      service_provider: DR MCR
    Stream #0:0[0x100](dan): Audio: mp2 ([3][0][0][0] / 0x0003), 48000 Hz, stereo, s16p, 384 kb/s
    Stream #0:1[0x101](dan): Audio: mp2 ([3][0][0][0] / 0x0003), 48000 Hz, stereo, s16p, 384 kb/s
    Stream #0:2[0x134]: Video: h264 (High) ([27][0][0][0] / 0x001B), yuv420p, 1920x1080 [SAR 1:1 DAR 16:9], 25 fps, 25 tbr, 90k tbn, 50 tbc
-async is forwarded to lavfi similarly to -af aresample=async=1:min_hard_comp=0.100000:first_pts=0.
[libx264 @ 0x37aaea0] using SAR=1/1
[libx264 @ 0x37aaea0] frame MB size (120x68) > level limit (3600)
[libx264 @ 0x37aaea0] DPB size (4 frames, 32640 mbs) > level limit (2 frames, 18000 mbs)
[libx264 @ 0x37aaea0] MB rate (204000) > level limit (108000)
[libx264 @ 0x37aaea0] using cpu capabilities: MMX2 SSE2Fast SSSE3 SSE4.2
[libx264 @ 0x37aaea0] profile High, level 3.1
Output #0, mpegts, to 'udp://54.229.139.162:5005':
  Metadata:
    encoder         : Lavf55.13.102
    Stream #0:0: Video: h264 (libx264), yuv420p, 1920x1080 [SAR 1:1 DAR 16:9], q=-1--1, 5000 kb/s, 90k tbn, 25 tbc
    Stream #0:1(dan): Audio: aac (libfdk_aac), 48000 Hz, stereo, s16, 128 kb/s
Stream mapping:
  Stream #0:2 -> #0:0 (h264 -> libx264)
  Stream #0:1 -> #0:1 (mp2 -> libfdk_aac)
Press [q] to stop, [?] for help
[mp2 @ 0x37a8c60] Header missing
Error while decoding stream #0:1: Invalid data found when processing input
[h264 @ 0x4a852a0] reference picture missing during reorder
[h264 @ 0x4a852a0] Missing reference picture, default is 0
[h264 @ 0x4a852a0] decode_slice_header error
[h264 @ 0x4aca0e0] reference picture missing during reorder
[h264 @ 0x4aca0e0] Missing reference picture, default is 65546
[h264 @ 0x4b38a80] reference picture missing during reorder
[h264 @ 0x4b38a80] Missing reference picture, default is 65542
[h264 @ 0x4c847c0] mmco: unref short failure
frame=    0 fps=0.0 q=0.0 size=       0kB time=00:00:00.53 bitrate=   0.0kbits/s    frame=    0 fps=0.0 q=0.0 size=       0kB time=00:00:00.66 bitrate=   0.0kbits/s    frame=   18 fps= 12 q=0.0 size=       0kB time=00:00:00.72 bitrate=   0.0kbits/s dup=16 drop=0    frame=   26 fps= 13 q=0.0 size=       0kB time=00:00:01.02 bitrate=   0.0kbits/s dup=16 drop=0    frame=   32 fps= 11 q=0.0 size=       0kB time=00:00:01.36 bitrate=   0.0kbits/s dup=16 drop=0    frame=   34 fps=7.8 q=23.0 size=     422kB time=00:00:01.38 bitrate=2490.3kbits/s dup=16 drop=0    frame=   38 fps=7.3 q=25.0 size=     430kB time=00:00:01.53 bitrate=2292.2kbits/s dup=16 drop=0    frame=   44 fps=7.2 q=29.0 size=     437kB time=00:00:01.74 bitrate=2046.2kbits/s dup=16 drop=0    frame=   50 fps=7.5 q=28.0 size=     441kB time=00:00:01.96 bitrate=1840.7kbits/s dup=16 drop=0    frame=   51 fps=6.1 q=26.0 size=     519kB time=00:00:02.02 bitrate=2098.7kbits/s dup=16 drop=0    frame=   56 fps=5.6 q=24.0 size=     659kB time=00:00:02.30 bitrate=2344.8kbits/s dup=16 drop=0    frame=   60 fps=5.7 q=25.0 size=     969kB time=00:00:02.45 bitrate=3234.4kbits/s dup=16 drop=0    frame=   64 fps=5.7 q=27.0 size=    1033kB time=00:00:02.58 bitrate=3278.0kbits/s dup=16 drop=0    frame=   69 fps=5.7 q=26.0 size=    1100kB time=00:00:02.73 bitrate=3299.7kbits/s dup=16 drop=0    frame=   73 fps=5.6 q=26.0 size=    1166kB time=00:00:02.88 bitrate=3316.6kbits/s dup=16 drop=0    frame=   77 fps=5.5 q=25.0 size=    1240kB time=00:00:03.15 bitrate=3216.8kbits/s dup=16 drop=0    frame=   81 fps=5.4 q=24.0 size=    1320kB time=00:00:03.30 bitrate=3270.7kbits/s dup=16 drop=0    frame=   85 fps=5.3 q=25.0 size=    1643kB time=00:00:03.45 bitrate=3894.5kbits/s dup=16 drop=0    frame=   90 fps=5.4 q=27.0 size=    1728kB time=00:00:03.60 bitrate=3926.3kbits/s dup=16 drop=0    frame=   93 fps=5.4 q=27.0 size=    1784kB time=00:00:03.69 bitrate=3959.8kbits/s dup=16 drop=0    frame=   98 fps=5.5 q=26.0 size=    1870kB time=00:00:03.88 bitrate=3944.5kbits/s dup=16 drop=0    frame=  102 fps=5.4 q=26.0 size=    1944kB time=00:00:04.09 bitrate=3888.9kbits/s dup=16 drop=0    frame=  106 fps=5.3 q=23.0 size=    2024kB time=00:00:04.24 bitrate=3905.1kbits/s dup=16 drop=0    frame=  110 fps=5.1 q=25.0 size=    2341kB time=00:00:04.39 bitrate=4364.5kbits/s dup=16 drop=0    frame=  111 fps=5.0 q=27.0 size=    2358kB time=00:00:04.48 bitrate=4310.9kbits/s dup=16 drop=0    frame=  114 fps=4.9 q=26.0 size=    2416kB time=00:00:04.56 bitrate=4335.1kbits/s dup=16 drop=0    frame=  118 fps=4.9 q=26.0 size=    2493kB time=00:00:04.69 bitrate=4351.8kbits/s dup=16 drop=0    frame=  122 fps=4.8 q=26.0 size=    2563kB time=00:00:04.84 bitrate=4335.9kbits/s dup=16 drop=0    frame=  126 fps=4.8 q=26.0 size=    2634kB time=00:00:05.14 bitrate=4196.9kbits/s dup=16 drop=0    frame=  130 fps=4.8 q=26.0 size=    2710kB time=00:00:05.26 bitrate=4213.4kbits/s dup=16 drop=0    frame=  134 fps=4.8 q=25.0 size=    3010kB time=00:00:05.41 bitrate=4551.1kbits/s dup=16 drop=0    frame=  138 fps=4.9 q=26.0 size=    3119kB time=00:00:05.46 bitrate=4678.3kbits/s dup=16 drop=0    frame=  139 fps=4.7 q=26.0 size=    3166kB time=00:00:05.56 bitrate=4657.9kbits/s dup=16 drop=0    frame=  144 fps=4.7 q=26.0 size=    3262kB time=00:00:05.76 bitrate=4639.9kbits/s dup=16 drop=0    frame=  147 fps=4.6 q=26.0 size=    3327kB time=00:00:05.93 bitrate=4595.9kbits/s dup=16 drop=0    frame=  151 fps=4.6 q=26.0 size=    3407kB time=00:00:06.14 bitrate=4542.8kbits/s dup=16 drop=0    frame=  156 fps=4.6 q=23.0 size=    3504kB time=00:00:06.25 bitrate=4591.6kbits/s dup=16 drop=0    frame=  160 fps=4.7 q=26.0 size=    3813kB time=00:00:06.42 bitrate=4864.0kbits/s dup=16 drop=0    frame=  165 fps=4.7 q=27.0 size=    3890kB time=00:00:06.54 bitrate=4866.1kbits/s dup=16 drop=0    frame=  169 fps=4.7 q=26.0 size=    3962kB time=00:00:06.69 bitrate=4845.0kbits/s dup=16 drop=0    frame=  173 fps=4.8 q=26.0 size=    4028kB time=00:00:06.97 bitrate=4730.0kbits/s dup=16 drop=0    frame=  177 fps=4.7 q=26.0 size=    4096kB time=00:00:07.12 bitrate=4708.9kbits/s dup=16 drop=0    frame=  180 fps=4.7 q=26.0 size=    4151kB time=00:00:07.27 bitrate=4674.9kbits/s dup=16 drop=0    frame=  182 fps=4.7 q=26.0 size=    4172kB time=00:00:07.27 bitrate=4697.7kbits/s dup=16 drop=0    frame=  186 fps=4.6 q=27.0 size=    4489kB time=00:00:07.40 bitrate=4967.3kbits/s dup=16 drop=0    frame=  190 fps=4.6 q=26.0 size=    4558kB time=00:00:07.55 bitrate=4944.4kbits/s dup=16 drop=0    frame=  194 fps=4.5 q=26.0 size=    4631kB time=00:00:07.70 bitrate=4926.2kbits/s dup=16 drop=0    frame=  198 fps=4.6 q=26.0 size=    4701kB time=00:00:07.97 bitrate=4827.2kbits/s dup=16 drop=0    frame=  198 fps=4.5 q=26.0 size=    4701kB time=00:00:08.02 bitrate=4801.5kbits/s dup=16 drop=0    frame=  202 fps=4.5 q=26.0 size=    4773kB time=00:00:08.12 bitrate=4810.8kbits/s dup=16 drop=0    frame=  205 fps=4.5 q=26.0 size=    4832kB time=00:00:08.23 bitrate=4806.8kbits/s dup=16 drop=0    frame=  210 fps=4.4 q=26.0 size=    5156kB time=00:00:08.34 bitrate=5063.9kbits/s dup=16 drop=0    frame=  210 fps=4.4 q=26.0 size=    5156kB time=00:00:08.36 bitrate=5051.0kbits/s dup=16 drop=0    frame=  214 fps=4.4 q=26.0 size=    5228kB time=00:00:08.51 bitrate=5031.1kbits/s dup=16 drop=0    frame=  218 fps=4.4 q=26.0 size=    5298kB time=00:00:08.72 bitrate=4974.1kbits/s dup=16 drop=0    frame=  222 fps=4.3 q=26.0 size=    5366kB time=00:00:08.93 bitrate=4917.3kbits/s dup=16 drop=0    frame=  226 fps=4.3 q=26.0 size=    5436kB time=00:00:09.08 bitrate=4900.4kbits/s dup=16 drop=0    frame=  230 fps=4.3 q=26.0 size=    5509kB time=00:00:09.23 bitrate=4886.0kbits/s dup=16 drop=0    frame=  236 fps=4.4 q=26.0 size=    5887kB time=00:00:09.42 bitrate=5114.1kbits/s dup=16 drop=0    frame=  240 fps=4.4 q=26.0 size=    5979kB time=00:00:09.57 bitrate=5113.2kbits/s dup=16 drop=0    frame=  245 fps=4.4 q=26.0 size=    6067kB time=00:00:09.85 bitrate=5042.6kbits/s dup=16 drop=0    frame=  248 fps=4.4 q=26.0 size=    6138kB time=00:00:10.00 bitrate=5025.6kbits/s dup=16 drop=0    frame=  251 fps=4.4 q=26.0 size=    6207kB time=00:00:10.09 bitrate=5039.5kbits/s dup=16 drop=0    frame=  256 fps=4.4 q=23.0 size=    6301kB time=00:00:10.28 bitrate=5020.3kbits/s dup=16 drop=0    frame=  260 fps=4.3 q=26.0 size=    6608kB time=00:00:10.36 bitrate=5221.5kbits/s dup=16 drop=0    frame=  264 fps=4.2 q=26.0 size=    6680kB time=00:00:10.53 bitrate=5192.2kbits/s dup=16 drop=0    frame=  266 fps=4.2 q=27.0 size=    6702kB time=00:00:10.60 bitrate=5178.0kbits/s dup=16 drop=0    frame=  268 fps=4.1 q=26.0 size=    6749kB time=00:00:10.81 bitrate=5111.5kbits/s dup=16 drop=0    frame=  273 fps=4.0 q=26.0 size=    6825kB time=00:00:10.94 bitrate=5108.8kbits/s dup=16 drop=0    frame=  274 fps=4.0 q=26.0 size=    6834kB time=00:00:11.02 bitrate=5076.0kbits/s dup=16 drop=0    frame=  277 fps=3.9 q=26.0 size=    6892kB time=00:00:11.09 bitrate=5089.6kbits/s dup=16 drop=0    frame=  281 fps=3.9 q=23.0 size=    6962kB time=00:00:11.22 bitrate=5082.8kbits/s dup=16 drop=0    frame=  285 fps=3.9 q=26.0 size=    7271kB time=00:00:11.37 bitrate=5238.6kbits/s dup=16 drop=0    frame=  289 fps=3.9 q=26.0 size=    7345kB time=00:00:11.54 bitrate=5213.4kbits/s dup=16 drop=0    frame=  294 fps=3.9 q=26.0 size=    7425kB time=00:00:11.79 bitrate=5156.2kbits/s dup=16 drop=0    frame=  298 fps=3.9 q=26.0 size=    7494kB time=00:00:11.94 bitrate=5138.4kbits/s dup=16 drop=0    frame=  300 fps=3.9 q=26.0 size=    7509kB time=00:00:12.01 bitrate=5121.6kbits/s dup=16 drop=0    frame=  302 fps=3.9 q=26.0 size=    7565kB time=00:00:12.11 bitrate=5114.6kbits/s dup=16 drop=0    frame=  304 fps=3.9 q=26.0 size=    7581kB time=00:00:12.16 bitrate=5107.3kbits/s dup=16 drop=0    frame=  306 fps=3.9 q=23.0 size=    7639kB time=00:00:12.24 bitrate=5110.3kbits/s dup=16 drop=0    frame=  309 fps=3.9 q=26.0 size=    7900kB time=00:00:12.33 bitrate=5248.5kbits/s dup=16 drop=0    frame=  313 fps=3.9 q=26.0 size=    7985kB time=00:00:12.45 bitrate=5250.4kbits/s dup=16 drop=0    frame=  314 fps=3.8 q=26.0 size=    8025kB time=00:00:12.54 bitrate=5240.6kbits/s dup=16 drop=0    frame=  317 fps=3.9 q=26.0 size=    8052kB time=00:00:12.73 bitrate=5179.4kbits/s dup=16 drop=0    frame=  318 fps=3.8 q=26.0 size=    8092kB time=00:00:12.75 bitrate=5196.5kbits/s dup=16 drop=0    frame=  322 fps=3.8 q=26.0 size=    8161kB time=00:00:12.90 bitrate=5179.6kbits/s dup=16 drop=0    frame=  326 fps=3.8 q=26.0 size=    8230kB time=00:00:13.05 bitrate=5163.8kbits/s dup=16 drop=0    frame=  330 fps=3.8 q=26.0 size=    8300kB time=00:00:13.20 bitrate=5149.2kbits/s dup=16 drop=0    frame=  334 fps=3.8 q=26.0 size=    8595kB time=00:00:13.33 bitrate=5280.5kbits/s dup=16 drop=0    frame=  336 fps=3.8 q=26.0 size=    8685kB time=00:00:13.39 bitrate=5310.3kbits/s dup=16 drop=0    frame=  339 fps=3.7 q=26.0 size=    8756kB time=00:00:13.54 bitrate=5294.9kbits/s dup=16 drop=0    frame=  344 fps=3.7 q=26.0 size=    8854kB time=00:00:13.82 bitrate=5246.9kbits/s dup=16 drop=0    frame=  348 fps=3.7 q=26.0 size=    8936kB time=00:00:13.97 bitrate=5238.8kbits/s dup=16 drop=0    frame=  352 fps=3.7 q=26.0 size=    9017kB time=00:00:14.10 bitrate=5238.1kbits/s dup=16 drop=0    frame=  355 fps=3.6 q=26.0 size=    9085kB time=00:00:14.20 bitrate=5238.0kbits/s dup=16 drop=0    frame=  357 fps=3.6 q=26.0 size=    9105kB time=00:00:14.25 bitrate=5233.9kbits/s dup=16 drop=0    frame=  361 fps=3.6 q=27.0 size=    9424kB time=00:00:14.40 bitrate=5361.0kbits/s dup=16 drop=0    frame=  365 fps=3.6 q=26.0 size=    9493kB time=00:00:14.67 bitrate=5298.7kbits/s dup=16 drop=0    frame=  366 fps=3.6 q=26.0 size=    9500kB time=00:00:14.69 bitrate=5294.9kbits/s dup=16 drop=0    frame=  368 fps=3.5 q=26.0 size=    9552kB time=00:00:14.78 bitrate=5292.9kbits/s dup=16 drop=0    frame=  373 fps=3.5 q=26.0 size=    9632kB time=00:00:14.89 bitrate=5299.0kbits/s dup=16 drop=0    frame=  377 fps=3.5 q=26.0 size=    9703kB time=00:00:15.04 bitrate=5284.9kbits/s dup=16 drop=0    frame=  377 fps=3.5 q=26.0 size=    9703kB time=00:00:15.06 bitrate=5277.4kbits/s dup=16 drop=0    frame=  381 fps=3.4 q=23.0 size=    9773kB time=00:00:15.18 bitrate=5270.6kbits/s dup=16 drop=0    frame=  385 fps=3.4 q=26.0 size=   10076kB time=00:00:15.33 bitrate=5381.2kbits/s dup=16 drop=0    frame=  385 fps=3.4 q=26.0 size=   10076kB time=00:00:15.36 bitrate=5373.8kbits/s dup=16 drop=0    frame=  390 fps=3.4 q=26.0 size=   10160kB time=00:00:15.61 bitrate=5329.6kbits/s dup=16 drop=0    frame=  394 fps=3.4 q=26.0 size=   10229kB time=00:00:15.76 bitrate=5315.4kbits/s dup=16 drop=0    frame=  398 fps=3.4 q=26.0 size=   10301kB time=00:00:15.91 bitrate=5302.4kbits/s dup=16 drop=0    frame=  402 fps=3.4 q=26.0 size=   10372kB time=00:00:16.04 bitrate=5296.6kbits/s dup=16 drop=0    frame=  406 fps=3.4 q=23.0 size=   10439kB time=00:00:16.19 bitrate=5281.5kbits/s dup=16 drop=0    frame=  408 fps=3.4 q=26.0 size=   10457kB time=00:00:16.27 bitrate=5262.6kbits/s dup=16 drop=0    frame=  411 fps=3.4 q=26.0 size=   10764kB time=00:00:16.42 bitrate=5367.8kbits/s dup=16 drop=0    frame=  414 fps=3.4 q=26.0 size=   10823kB time=00:00:16.66 bitrate=5321.5kbits/s dup=16 drop=0    frame=  418 fps=3.4 q=26.0 size=   10896kB time=00:00:16.72 bitrate=5336.9kbits/s dup=16 drop=0    frame=  421 fps=3.4 q=26.0 size=   10925kB time=00:00:16.85 bitrate=5310.5kbits/s dup=16 drop=0    frame=  422 fps=3.3 q=26.0 size=   10968kB time=00:00:16.87 bitrate=5324.3kbits/s dup=16 drop=0    frame=  426 fps=3.3 q=26.0 size=   11040kB time=00:00:17.00 bitrate=5319.3kbits/s dup=16 drop=0    frame=  429 fps=3.3 q=26.0 size=   11071kB time=00:00:17.13 bitrate=5294.1kbits/s dup=16 drop=0    frame=  430 fps=3.3 q=26.0 size=   11120kB time=00:00:17.15 bitrate=5311.2kbits/s dup=16 drop=0    frame=  433 fps=3.3 q=26.0 size=   11153kB time=00:00:17.28 bitrate=5287.2kbits/s dup=16 drop=0    frame=  434 fps=3.2 q=26.0 size=   11427kB time=00:00:17.36 bitrate=5390.8kbits/s dup=16 drop=0    frame=  435 fps=3.2 q=26.0 size=   11498kB time=00:00:17.45 bitrate=5397.6kbits/s dup=16 drop=0    frame=  438 fps=3.2 q=26.0 size=   11531kB time=00:00:17.57 bitrate=5373.7kbits/s dup=16 drop=0    frame=  440 fps=3.2 q=26.0 size=   11604kB time=00:00:17.64 bitrate=5388.1kbits/s dup=16 drop=0    frame=  442 fps=3.2 q=26.0 size=   11624kB time=00:00:17.70 bitrate=5377.6kbits/s dup=16 drop=0    frame=  444 fps=3.2 q=26.0 size=   11692kB time=00:00:17.77 bitrate=5389.9kbits/s dup=16 drop=0    frame=  444 fps=3.2 q=26.0 size=   11692kB time=00:00:17.81 bitrate=5377.0kbits/s dup=16 drop=0    frame=  448 fps=3.2 q=26.0 size=   11776kB time=00:00:17.92 bitrate=5383.3kbits/s dup=16 drop=0    frame=  452 fps=3.2 q=26.0 size=   11860kB time=00:00:18.06 bitrate=5377.0kbits/s dup=16 drop=0    frame=  453 fps=3.2 q=26.0 size=   11868kB time=00:00:18.09 bitrate=5374.2kbits/s dup=16 drop=0    frame=  456 fps=3.2 q=23.0 size=   11947kB time=00:00:18.24 bitrate=5365.7kbits/s dup=16 drop=0    frame=  459 fps=3.2 q=26.0 size=   12206kB time=00:00:18.38 bitrate=5437.7kbits/s dup=16 drop=0    frame=  461 fps=3.2 q=27.0 size=   12268kB time=00:00:18.49 bitrate=5433.4kbits/s dup=16 drop=0    frame=  465 fps=3.2 q=27.0 size=   12336kB time=00:00:18.64 bitrate=5420.0kbits/s dup=16 drop=0    frame=  469 fps=3.2 q=26.0 size=   12405kB time=00:00:18.79 bitrate=5407.1kbits/s dup=16 drop=0    frame=  473 fps=3.2 q=26.0 size=   12475kB time=00:00:18.92 bitrate=5400.5kbits/s dup=16 drop=0    frame=  476 fps=3.2 q=26.0 size=   12530kB time=00:00:19.02 bitrate=5394.2kbits/s dup=16 drop=0    frame=  480 fps=3.2 q=26.0 size=   12602kB time=00:00:19.17 bitrate=5383.0kbits/s dup=16 drop=0    frame=  485 fps=3.2 q=26.0 size=   12924kB time=00:00:19.43 bitrate=5447.7kbits/s dup=16 drop=0    frame=  489 fps=3.2 q=26.0 size=   12996kB time=00:00:19.60 bitrate=5430.5kbits/s dup=16 drop=0    frame=  494 fps=3.2 q=26.0 size=   13080kB time=00:00:19.73 bitrate=5429.8kbits/s dup=16 drop=0    frame=  498 fps=3.2 q=26.0 size=   13150kB time=00:00:19.86 bitrate=5423.9kbits/s dup=16 drop=0    frame=  502 fps=3.2 q=26.0 size=   13218kB time=00:00:20.01 bitrate=5411.1kbits/s dup=16 drop=0    frame=  505 fps=3.2 q=26.0 size=   13282kB time=00:00:20.18 bitrate=5391.2kbits/s dup=16 drop=0    frame=  510 fps=3.2 q=26.0 size=   13599kB time=00:00:20.43 bitrate=5450.9kbits/s dup=16 drop=0    frame=  512 fps=3.2 q=26.0 size=   13619kB time=00:00:20.52 bitrate=5436.2kbits/s dup=16 drop=0    frame=  514 fps=3.2 q=26.0 size=   13671kB time=00:00:20.60 bitrate=5434.5kbits/s dup=16 drop=0    frame=  518 fps=3.2 q=26.0 size=   13743kB time=00:00:20.75 bitrate=5423.9kbits/s dup=16 drop=0    frame=  522 fps=3.2 q=26.0 size=   13813kB time=00:00:20.90 bitrate=5412.3kbits/s dup=16 drop=0    frame=  526 fps=3.2 q=26.0 size=   13887kB time=00:00:21.03 bitrate=5408.4kbits/s dup=16 drop=0    frame=  530 fps=3.2 q=26.0 size=   13960kB time=00:00:21.18 bitrate=5398.5kbits/s dup=16 drop=0    frame=  533 fps=3.2 q=26.0 size=   13986kB time=00:00:21.37 bitrate=5360.0kbits/s dup=16 drop=0    frame=  534 fps=3.2 q=26.0 size=   14249kB time=00:00:21.39 bitrate=5455.4kbits/s dup=16 drop=0    frame=  535 fps=3.2 q=26.0 size=   14316kB time=00:00:21.48 bitrate=5459.0kbits/s dup=16 drop=0    frame=  538 fps=3.2 q=26.0 size=   14348kB time=00:00:21.54 bitrate=5455.0kbits/s dup=16 drop=0    frame=  539 fps=3.1 q=26.0 size=   14404kB time=00:00:21.61 bitrate=5460.3kbits/s dup=16 drop=0    frame=  542 fps=3.2 q=27.0 size=   14435kB time=00:00:21.67 bitrate=5455.9kbits/s dup=16 drop=0    frame=  543 fps=3.1 q=27.0 size=   14488kB time=00:00:21.76 bitrate=5454.5kbits/s dup=16 drop=0    frame=  546 fps=3.1 q=27.0 size=   14517kB time=00:00:21.80 bitrate=5454.7kbits/s dup=16 drop=0    frame=  548 fps=3.1 q=26.0 size=   14584kB time=00:00:21.88 bitrate=5458.3kbits/s dup=16 drop=0    frame=  552 fps=3.2 q=26.0 size=   14671kB time=00:00:22.03 bitrate=5453.8kbits/s dup=16 drop=0    frame=  555 fps=3.2 q=26.0 size=   14738kB time=00:00:22.18 bitrate=5441.6kbits/s dup=16 drop=0    frame=  561 fps=3.2 q=27.0 size=   15070kB time=00:00:22.46 bitrate=5495.8kbits/s dup=16 drop=0    frame=  562 fps=3.2 q=26.0 size=   15077kB time=00:00:22.48 bitrate=5493.1kbits/s dup=16 drop=0    frame=  565 fps=3.2 q=27.0 size=   15141kB time=00:00:22.61 bitrate=5485.0kbits/s dup=16 drop=0    frame=  566 fps=3.2 q=27.0 size=   15148kB time=00:00:22.63 bitrate=5482.4kbits/s dup=16 drop=0    frame=  570 fps=3.2 q=27.0 size=   15215kB time=00:00:22.74 bitrate=5480.8kbits/s dup=16 drop=0    frame=  577 fps=3.2 q=26.0 size=   15347kB time=00:00:23.04 bitrate=5456.8kbits/s dup=16 drop=0    frame=  581 fps=3.2 q=24.0 size=   15416kB time=00:00:23.31 bitrate=5416.2kbits/s dup=16 drop=0    frame=  585 fps=3.2 q=26.0 size=   15723kB time=00:00:23.42 bitrate=5498.8kbits/s dup=16 drop=0    frame=  590 fps=3.2 q=27.0 size=   15814kB time=00:00:23.53 bitrate=5505.6kbits/s dup=16 drop=0    frame=  593 fps=3.2 q=27.0 size=   15874kB time=00:00:23.70 bitrate=5486.4kbits/s dup=16 drop=0    frame=  597 fps=3.2 q=26.0 size=   15945kB time=00:00:23.85 bitrate=5476.7kbits/s dup=16 drop=0    frame=  601 fps=3.2 q=26.0 size=   16022kB time=00:00:24.00 bitrate=5468.9kbits/s dup=16 drop=0    frame=  606 fps=3.3 q=24.0 size=   16110kB time=00:00:24.25 bitrate=5441.0kbits/s dup=16 drop=0    frame=  610 fps=3.3 q=26.0 size=   16414kB time=00:00:24.42 bitrate=5504.7kbits/s dup=16 drop=0    frame=  614 fps=3.3 q=27.0 size=   16490kB time=00:00:24.55 bitrate=5501.5kbits/s dup=16 drop=0    frame=  616 fps=3.3 q=27.0 size=   16515kB time=00:00:24.61 bitrate=5495.5kbits/s dup=16 drop=0    frame=  618 fps=3.3 q=27.0 size=   16565kB time=00:00:24.72 bitrate=5488.4kbits/s dup=16 drop=0    frame=  622 fps=3.3 q=26.0 size=   16642kB time=00:00:24.85 bitrate=5485.4kbits/s dup=16 drop=0    frame=  626 fps=3.3 q=26.0 size=   16715kB time=00:00:25.00 bitrate=5476.6kbits/s dup=16 drop=0    frame=  630 fps=3.3 q=26.0 size=   16787kB time=00:00:25.21 bitrate=5453.7kbits/s dup=16 drop=0    frame=  636 fps=3.3 q=27.0 size=   17156kB time=00:00:25.40 bitrate=5531.4kbits/s dup=16 drop=0    frame=  640 fps=3.3 q=27.0 size=   17247kB time=00:00:25.55 bitrate=5528.1kbits/s dup=16 drop=0    frame=  643 fps=3.3 q=27.0 size=   17319kB time=00:00:25.72 bitrate=5514.4kbits/s dup=16 drop=0    frame=  648 fps=3.3 q=27.0 size=   17423kB time=00:00:25.92 bitrate=5506.5kbits/s dup=16 drop=0    frame=  651 fps=3.3 q=27.0 size=   17496kB time=00:00:26.09 bitrate=5493.5kbits/s dup=16 drop=0    frame=  655 fps=3.3 q=27.0 size=   17584kB time=00:00:26.30 bitrate=5476.4kbits/s dup=16 drop=0    frame=  658 fps=3.3 q=26.0 size=   17621kB time=00:00:26.34 bitrate=5478.8kbits/s dup=16 drop=0    frame=  660 fps=3.3 q=26.0 size=   17906kB time=00:00:26.41 bitrate=5554.1kbits/s dup=16 drop=0    frame=  662 fps=3.3 q=27.0 size=   17926kB time=00:00:26.49 bitrate=5542.5kbits/s dup=16 drop=0    frame=  665 fps=3.3 q=27.0 size=   17998kB time=00:00:26.56 bitrate=5551.3kbits/s dup=16 drop=0    frame=  669 fps=3.3 q=27.0 size=   18075kB time=00:00:26.73 bitrate=5539.2kbits/s dup=16 drop=0    frame=  673 fps=3.3 q=27.0 size=   18153kB time=00:00:26.85 bitrate=5536.7kbits/s dup=16 drop=0    frame=  677 fps=3.3 q=27.0 size=   18227kB time=00:00:27.13 bitrate=5502.4kbits/s dup=16 drop=0    frame=  681 fps=3.3 q=24.0 size=   18299kB time=00:00:27.28 bitrate=5494.0kbits/s dup=16 drop=0    frame=  683 fps=3.3 q=26.0 size=   18314kB time=00:00:27.37 bitrate=5481.5kbits/s dup=16 drop=0    frame=  685 fps=3.3 q=26.0 size=   18607kB time=00:00:27.43 bitrate=5556.1kbits/s dup=16 drop=0    frame=  686 fps=3.3 q=27.0 size=   18621kB time=00:00:27.43 bitrate=5560.2kbits/s dup=16 drop=0    frame=  689 fps=3.3 q=27.0 size=   18681kB time=00:00:27.56 bitrate=5552.4kbits/s dup=16 drop=0    frame=  690 fps=3.3 q=27.0 size=   18696kB time=00:00:27.56 bitrate=5556.6kbits/s dup=16 drop=0    frame=  694 fps=3.3 q=27.0 size=   18766kB time=00:00:27.71 bitrate=5547.6kbits/s dup=16 drop=0    frame=  695 fps=3.3 q=27.0 size=   18774kB time=00:00:27.79 bitrate=5532.8kbits/s dup=16 drop=0    frame=  698 fps=3.3 q=27.0 size=   18843kB time=00:00:27.86 bitrate=5540.4kbits/s dup=16 drop=0    frame=  698 fps=3.2 q=27.0 size=   18843kB time=00:00:27.88 bitrate=5536.2kbits/s dup=16 drop=0    frame=  702 fps=3.2 q=27.0 size=   18915kB time=00:00:28.18 bitrate=5498.3kbits/s dup=16 drop=0    frame=  706 fps=3.2 q=24.0 size=   18985kB time=00:00:28.24 bitrate=5506.3kbits/s dup=16 drop=0    frame=  710 fps=3.2 q=26.0 size=   19279kB time=00:00:28.39 bitrate=5562.2kbits/s dup=16 drop=0    frame=  714 fps=3.2 q=27.0 size=   19349kB time=00:00:28.52 bitrate=5557.2kbits/s dup=16 drop=0    frame=  718 fps=3.2 q=27.0 size=   19421kB time=00:00:28.67 bitrate=5548.8kbits/s dup=16 drop=0    frame=  722 fps=3.2 q=27.0 size=   19487kB time=00:00:28.88 bitrate=5526.5kbits/s dup=16 drop=0    frame=  725 fps=3.2 q=27.0 size=   19510kB time=00:00:29.07 bitrate=5496.7kbits/s dup=16 drop=0    frame=  726 fps=3.2 q=27.0 size=   19551kB time=00:00:29.09 bitrate=5504.1kbits/s dup=16 drop=0    frame=  730 fps=3.2 q=27.0 size=   19619kB time=00:00:29.24 bitrate=5495.0kbits/s dup=16 drop=0    frame=  736 fps=3.2 q=27.0 size=   19972kB time=00:00:29.44 bitrate=5557.5kbits/s dup=16 drop=0    frame=  740 fps=3.2 q=27.0 size=   20054kB time=00:00:29.58 bitrate=5552.2kbits/s dup=16 drop=0    frame=  742 fps=3.2 q=27.0 size=   20071kB time=00:00:29.67 bitrate=5540.7kbits/s dup=16 drop=0    frame=  744 fps=3.2 q=27.0 size=   20141kB time=00:00:29.73 bitrate=5548.2kbits/s dup=16 drop=0    frame=  745 fps=3.2 q=27.0 size=   20149kB time=00:00:29.76 bitrate=5546.4kbits/s dup=16 drop=0    frame=  747 fps=3.2 q=27.0 size=   20208kB time=00:00:29.90 bitrate=5534.9kbits/s dup=16 drop=0    frame=  751 fps=3.2 q=27.0 size=   20287kB time=00:00:30.12 bitrate=5517.3kbits/s dup=16 drop=0    frame=  755 fps=3.2 q=27.0 size=   20370kB time=00:00:30.25 bitrate=5516.3kbits/s dup=16 drop=0    frame=  758 fps=3.2 q=27.0 size=   20403kB time=00:00:30.31 bitrate=5513.5kbits/s dup=16 drop=0    frame=  760 fps=3.2 q=27.0 size=   20685kB time=00:00:30.37 bitrate=5578.1kbits/s dup=16 drop=0    frame=  760 fps=3.2 q=27.0 size=   20685kB time=00:00:30.40 bitrate=5574.2kbits/s dup=16 drop=0    frame=  764 fps=3.2 q=27.0 size=   20755kB time=00:00:30.52 bitrate=5569.5kbits/s dup=16 drop=0    frame=  764 fps=3.2 q=27.0 size=   20755kB time=00:00:30.54 bitrate=5565.7kbits/s dup=16 drop=0    frame=  769 fps=3.2 q=27.0 size=   20846kB time=00:00:30.74 bitrate=5555.1kbits/s dup=16 drop=0    frame=  772 fps=3.2 q=27.0 size=   20903kB time=00:00:30.97 bitrate=5528.0kbits/s dup=16 drop=0    frame=  777 fps=3.2 q=27.0 size=   20988kB time=00:00:31.10 bitrate=5527.8kbits/s dup=16 drop=0    frame=  777 fps=3.2 q=27.0 size=   20988kB time=00:00:31.12 bitrate=5524.0kbits/s dup=16 drop=0    frame=  781 fps=3.2 q=24.0 size=   21057kB time=00:00:31.25 bitrate=5519.5kbits/s dup=16 drop=0    frame=  782 fps=3.2 q=27.0 size=   21068kB time=00:00:31.33 bitrate=5507.1kbits/s dup=16 drop=0    frame=  786 fps=3.2 q=27.0 size=   21373kB time=00:00:31.38 bitrate=5579.3kbits/s dup=16 drop=0    frame=  789 fps=3.2 q=27.0 size=   21427kB time=00:00:31.53 bitrate=5566.9kbits/s dup=16 drop=0    frame=  790 fps=3.1 q=27.0 size=   21443kB time=00:00:31.53 bitrate=5571.1kbits/s dup=16 drop=0    frame=  793 fps=3.1 q=27.0 size=   21500kB time=00:00:31.70 bitrate=5556.0kbits/s dup=16 drop=0    frame=  798 fps=3.2 q=27.0 size=   21583kB time=00:00:31.95 bitrate=5532.6kbits/s dup=16 drop=0    frame=  798 fps=3.1 q=27.0 size=   21583kB time=00:00:31.97 bitrate=5528.9kbits/s dup=16 drop=0    frame=  802 fps=3.2 q=27.0 size=   21652kB time=00:00:32.10 bitrate=5524.4kbits/s dup=16 drop=0    frame=  806 fps=3.2 q=24.0 size=   21718kB time=00:00:32.25 bitrate=5515.6kbits/s dup=16 drop=0    frame=  810 fps=3.2 q=26.0 size=   22004kB time=00:00:32.40 bitrate=5562.5kbits/s dup=16 drop=0    frame=  813 fps=3.2 q=27.0 size=   22028kB time=00:00:32.46 bitrate=5557.6kbits/s dup=16 drop=0    frame=  814 fps=3.1 q=27.0 size=   22067kB time=00:00:32.55 bitrate=5553.0kbits/s dup=16 drop=0    frame=  818 fps=3.1 q=27.0 size=   22128kB time=00:00:32.70 bitrate=5542.9kbits/s dup=16 drop=0    frame=  819 fps=3.1 q=27.0 size=   22138kB time=00:00:32.78 bitrate=5530.8kbits/s dup=16 drop=0    frame=  822 fps=3.1 q=27.0 size=   22188kB time=00:00:32.91 bitrate=5521.8kbits/s dup=16 drop=0    frame=  825 fps=3.1 q=27.0 size=   22212kB time=00:00:33.04 bitrate=5506.5kbits/s dup=16 drop=0    frame=  826 fps=3.1 q=27.0 size=   22249kB time=00:00:33.06 bitrate=5512.0kbits/s dup=16 drop=0    frame=  830 fps=3.1 q=26.0 size=   22309kB time=00:00:33.21 bitrate=5502.0kbits/s dup=16 drop=0    frame=  833 fps=3.1 q=26.0 size=   22335kB time=00:00:33.32 bitrate=5490.8kbits/s dup=16 drop=0    